# xmcd
#
# Track frame offsets:
#	150
#	19120
#	38477
#	53987
#	77075
#	113277
#	144050
#	158072
#	171952
#	199515
#	229590
#	259355
#	270695
#	288962
#	321225
#
# Disc length: 4528 seconds
#
# Revision: 0
# Processed by: cddbd v1.5PL3 Copyright (c) Steve Scherf et al.
# Submitted via: dBpowerAMP V4.0
#
DISCID=be11ae0f
DTITLE=Jack Ingram - Acoustic Motel
DYEAR=2004
DGENRE=Country
TTITLE0=Airways Motel
TTITLE1=Hey You
TTITLE2=Work This Out
TTITLE3=I Would
TTITLE4=Fool
TTITLE5=Everybody
TTITLE6=One Thing
TTITLE7=What Makes You Say
TTITLE8=Flutter
TTITLE9=Drive On
TTITLE10=Song For Amy
TTITLE11=Nothing Wrong With That (Beat-Up Ford, Pt. 2)
TTITLE12=Mustang Burn
TTITLE13=Biloxi
TTITLE14=Goodnight Moon
EXTD=
EXTT0=
EXTT1=
EXTT2=
EXTT3=
EXTT4=
EXTT5=
EXTT6=
EXTT7=
EXTT8=
EXTT9=
EXTT10=
EXTT11=
EXTT12=
EXTT13=
EXTT14=
PLAYORDER=
